<svg xmlns="http://www.w3.org/2000/svg" width="100" height="100" viewBox="0 0 145.248 147.438">
  <g id="Group_126" data-name="Group 126" transform="translate(-877.768 -974.454)">
    <g id="Group_122" data-name="Group 122" transform="translate(875.213 973.173)">
      <path id="Path_11" data-name="Path 11" d="M61.424,121.258c-.007-4-.009-7.992-.031-11.988,0-.634.276-.8.866-.813,1.977-.043,1.976-.062,1.979-2.08,0-.5.028-1.008,0-1.51-.042-.64.195-.9.859-.908,1.278-.01,1.256-.035.947-1.284A23.115,23.115,0,0,0,55.654,88.208c-.637-.4-.79-.764-.431-1.477,1.269-2.521,2.458-5.08,3.7-7.617Q64.949,66.76,70.99,54.409c.392-.8.779-1.609,1.155-2.422a.9.9,0,0,1,.925-.566c1.229.016,2.459.031,3.689-.008a1.109,1.109,0,0,1,1.142.771c1.4,2.954,2.817,5.9,4.232,8.847q3.969,8.275,7.948,16.548c1.483,3.1,2.942,6.21,4.453,9.3.289.593.142.888-.359,1.226a27.03,27.03,0,0,0-6.567,5.932,26.126,26.126,0,0,0-4.113,9.2c-.139.508.076.7.593.729,1.358.078,1.358.1,1.362,1.484,0,.756.019,1.511,0,2.266-.016.525.172.736.725.757,2.141.071,2.132.088,2.123,2.223q-.021,5.282-.027,10.563Q74.843,121.256,61.424,121.258ZM73.478,56.172l-.161-.052c-.14.265-.289.526-.42.8q-2.509,5.165-5.015,10.332Q63.335,76.6,58.77,85.936c-.337.685-.178,1.006.379,1.438a26.056,26.056,0,0,1,6.458,6.858,30.848,30.848,0,0,1,3.532,8.841c.121.489.224.9.875.9q4.9-.022,9.811,0a.764.764,0,0,0,.844-.633c.21-.783.42-1.566.673-2.334a27.6,27.6,0,0,1,4.408-8.979,26.14,26.14,0,0,1,4.785-4.551c.761-.566.879-1.05.393-1.849-.463-.761-.783-1.606-1.174-2.41q-6.48-13.3-12.965-26.6c-.08-.168-.1-.421-.422-.468v1.461c0,5.926.018,11.851-.012,17.777a1.632,1.632,0,0,0,1.016,1.753,5.059,5.059,0,0,1,2.5,5.992,5.16,5.16,0,0,1-10.032-.458,5.168,5.168,0,0,1,2.922-5.743,1.078,1.078,0,0,0,.727-1.145c-.019-3.243-.008-6.485-.008-9.727Q73.478,61.119,73.478,56.172Zm1.539,55.064c-3.188,0-6.374.02-9.56-.014-.742-.008-1.058.188-1.037.983.047,1.815.038,3.635.01,5.449-.01.651.215.883.874.882q9.686-.024,19.37,0c.725,0,.9-.276.893-.94-.03-1.787-.041-3.576,0-5.365.019-.756-.2-1.023-.991-1.015C81.391,111.261,78.2,111.236,75.017,111.236ZM75,106.859v0c-2.316,0-4.631.011-6.946-.008-.587,0-.946.092-.943.813s.368.805.95.8q6.945-.021,13.893,0c.59,0,.936-.094.934-.813s-.354-.814-.94-.809C79.632,106.871,77.316,106.859,75,106.859Zm2.19-25.283A2.246,2.246,0,0,0,74.843,79.2a2.387,2.387,0,0,0-2.284,2.323,2.321,2.321,0,0,0,2.361,2.308A2.182,2.182,0,0,0,77.191,81.576Z" fill="#0073E6"/>
      <path id="Path_12" data-name="Path 12" d="M60.877,43.41H52.21c-2.628,0-5.256.024-7.883,0a1.258,1.258,0,0,0-1.309.775,4.748,4.748,0,0,1-6.938,1.827,4.942,4.942,0,0,1-1.267-7.071,5.016,5.016,0,0,1,7.229-.709,3.2,3.2,0,0,1,.877,1.214c.309.784.842.949,1.633.945,6.374-.03,12.748-.017,19.121-.017.923,0,1.845,0,2.768,0,1.361,0,1.362,0,1.365-1.4,0-.923.016-1.846-.006-2.768-.015-.63.216-.893.883-.889q5.912.033,11.827,0c.692,0,.945.238.924.924-.035,1.09.039,2.183-.021,3.27-.045.814.248,1.042,1.049,1.04,7.129-.028,14.259-.018,21.388-.019.67,0,1.344-.042,2.012.014a1.335,1.335,0,0,0,1.492-.868,4.653,4.653,0,0,1,5.039-2.5,4.854,4.854,0,0,1,4.01,3.786,4.971,4.971,0,0,1-2.855,5.588,4.619,4.619,0,0,1-5.93-1.817,7.173,7.173,0,0,1-.5-.872.724.724,0,0,0-.73-.45q-7.84.01-15.682.021c-.041,0-.081.056-.191.136,1.377.741,2.779,1.351,4.074,2.159a36.354,36.354,0,0,1,17.223,25.148c.222,1.174.2,1.178,1.414,1.186,2.422.015,2.422.015,2.422,2.432,0,1.957-.021,3.915.012,5.87.011.7-.188,1.013-.944,1-2.487-.031-4.976-.021-7.463,0-.642.008-.9-.218-.9-.875q.032-3.775,0-7.548c-.006-.647.228-.878.881-.888,2.033-.03,2.011-.047,1.566-2.1a33.691,33.691,0,0,0-26.14-25.974c-1.068-.228-1.076-.2-1.078.885s-.019,2.181,0,3.271c.013.6-.2.857-.827.855q-6.035-.02-12.077.008c-.665,0-.893-.268-.877-.9.023-1.006-.007-2.013.008-3.019.009-.624-.176-.858-.853-.668a33.179,33.179,0,0,0-21.9,18.329,32.7,32.7,0,0,0-2.629,8.285c-.17.921-.091,1.018.846,1.035,2.077.039,2.077.039,2.077,2.107s-.021,4.139.01,6.205c.011.715-.22,1-.962.986-2.487-.03-4.976-.023-7.464,0-.656.006-.886-.244-.88-.891q.033-3.775,0-7.549c-.007-.665.256-.91.9-.867.445.03.9-.042,1.34.014.845.105,1.185-.249,1.3-1.077a32.585,32.585,0,0,1,2.4-8.359A36.107,36.107,0,0,1,60.195,43.868c.176-.084.353-.166.528-.251A2.086,2.086,0,0,0,60.877,43.41Zm9.652-1.34c0,1.09.014,2.181-.006,3.27-.009.518.166.774.72.772q3.228-.018,6.455,0c.606,0,.854-.247.849-.851q-.024-3.228-.006-6.455c0-.523-.209-.77-.744-.767q-3.27.01-6.539,0c-.54,0-.745.23-.735.761C70.544,39.89,70.529,40.981,70.529,42.07Zm39.058-.021a1.716,1.716,0,0,0,1.97,1.854,1.931,1.931,0,0,0,1.992-2.018,1.993,1.993,0,1,0-3.962.164ZM38.7,43.906a1.876,1.876,0,0,0,2.066-1.911,2.162,2.162,0,0,0-2.093-2.08,1.9,1.9,0,0,0-2.009,1.99A2.023,2.023,0,0,0,38.7,43.906Zm1.8,34.565c1.987-.016,1.818.209,1.811-1.787-.007-1.9.14-1.746-1.709-1.73-2.029.018-1.791-.207-1.8,1.795C38.781,78.641,38.6,78.439,40.495,78.471Zm70.472,0c1.975-.016,1.8.205,1.795-1.8-.007-1.882.139-1.731-1.724-1.714-2.013.017-1.774-.208-1.789,1.81C109.236,78.646,109.063,78.439,110.967,78.471Z" fill="#0073E6"/>
      <path id="Path_13" data-name="Path 13" d="M77.191,81.576a2.182,2.182,0,0,1-2.271,2.253,2.32,2.32,0,0,1-2.361-2.308A2.388,2.388,0,0,1,74.843,79.2,2.247,2.247,0,0,1,77.191,81.576Z" fill="#0073E6"/>
    </g>
    <ellipse id="Ellipse_47" data-name="Ellipse 47" cx="71.624" cy="72.719" rx="71.624" ry="72.719" transform="translate(878.768 975.454)" fill="none" stroke="#0073E6" stroke-miterlimit="10" stroke-width="2"/>
  </g>
</svg>